{
  "source": "C:\\Users\\Peter\\Desktop\\stuff\\MIUN\\quantitative_research\\video_compression\\videos\\BVI-HD\\BVI-HD_CDVL_videos\\ORIG\\Surfers_1920x1080_30fps.mp4",
  "output": "C:\\Users\\Peter\\Desktop\\stuff\\MIUN\\quantitative_research\\video_compression\\compressed_videos\\BVI-HD\\hevc\\2.5\\Surfers_1920x1080_30fps_hevc.mp4",
  "codec": "hevc",
  "ok": "Input #0, mov,mp4,m4a,3gp,3g2,mj2, from 'C:\\Users\\Peter\\Desktop\\stuff\\MIUN\\quantitative_research\\video_compression\\videos\\BVI-HD\\BVI-HD_CDVL_videos\\ORIG\\Surfers_1920x1080_30fps.mp4':\n  Metadata:\n    major_brand     : isom\n    minor_version   : 512\n    compatible_brands: isomiso2avc1mp41\n    encoder         : Lavf54.28.101\n  Duration: 00:00:05.00, start: 0.000000, bitrate: 232762 kb/s\n  Stream #0:0[0x1](und): Video: h264 (High 4:4:4 Predictive) (avc1 / 0x31637661), yuv420p(progressive), 1920x1080, 232759 kb/s, 30 fps, 30 tbr, 30 tbn (default)\n    Metadata:\n      handler_name    : VideoHandler\n      vendor_id       : [0][0][0][0]\n[out#0/mp4 @ 0000019f2fa4abc0] Codec AVOption b:a (set bitrate (in bits/s)) has not been used for any stream. The most likely reason is either wrong type (e.g. a video option with no video streams) or that it is a private option of some decoder which was not actually used for any stream.\nStream mapping:\n  Stream #0:0 -> #0:0 (h264 (native) -> hevc (libx265))\nPress [q] to stop, [?] for help\n[libx265 @ 0000019f2ffea480] Unknown option: \"aq-mode.\nx265 [info]: HEVC encoder version 4.1+190-8f11c33ac\nx265 [info]: build info [Windows][GCC 15.1.0][64 bit] 10bit\nx265 [info]: using cpu capabilities: MMX2 SSE2Fast LZCNT SSSE3 SSE4.2 AVX FMA3 BMI2 AVX2\nx265 [info]: Main 10 profile, Level-4 (Main tier)\nx265 [info]: Thread pool created using 12 threads\nx265 [info]: Slices                              : 1\nx265 [info]: frame threads / pool features       : 3 / wpp(17 rows)\nx265 [info]: Coding QT: max CU size, min CU size : 64 / 8\nx265 [info]: Residual QT: max TU size, max depth : 32 / 1 inter / 1 intra\nx265 [info]: ME / range / subpel / merge         : star / 57 / 3 / 3\nx265 [info]: Keyframe min / max / scenecut / bias  : 25 / 250 / 40 / 5.00 \nx265 [info]: Lookahead / bframes / badapt        : 25 / 4 / 2\nx265 [info]: b-pyramid / weightp / weightb       : 1 / 1 / 0\nx265 [info]: References / ref-limit  cu / depth  : 4 / on / on\nx265 [info]: AQ: mode / str / qg-size / cu-tree  : 2 / 1.0 / 32 / 1\nx265 [info]: Rate Control / qCompress            : ABR-2500 kbps / 0.60\nx265 [info]: VBV/HRD buffer / max-rate / init    : 2500 / 2500 / 0.750\nx265 [info]: tools: rect limit-modes rd=4 psy-rd=2.00 rdoq=2 psy-rdoq=1.00\nx265 [info]: tools: rskip mode=1 signhide tmvp strong-intra-smoothing lslices=4\nx265 [info]: tools: deblock sao dhdr10-info\nOutput #0, mp4, to 'C:\\Users\\Peter\\Desktop\\stuff\\MIUN\\quantitative_research\\video_compression\\compressed_videos\\BVI-HD\\hevc\\2.5\\Surfers_1920x1080_30fps_hevc.mp4':\n  Metadata:\n    major_brand     : isom\n    minor_version   : 512\n    compatible_brands: isomiso2avc1mp41\n    encoder         : Lavf62.3.100\n  Stream #0:0(und): Video: hevc (hev1 / 0x31766568), yuv420p10le(tv, progressive), 1920x1080, q=2-31, 2500 kb/s, 30 fps, 15360 tbn (default)\n    Metadata:\n      encoder         : Lavc62.11.100 libx265\n      handler_name    : VideoHandler\n      vendor_id       : [0][0][0][0]\n    Side data:\n      cpb: bitrate max/min/avg: 2500000/0/2500000 buffer size: 2500000 vbv_delay: N/A\nframe=    0 fps=0.0 q=0.0 size=       0KiB time=N/A bitrate=N/A speed=N/A elapsed=0:00:00.52    \nframe=    0 fps=0.0 q=0.0 size=       0KiB time=N/A bitrate=N/A speed=N/A elapsed=0:00:01.06    \nframe=    0 fps=0.0 q=0.0 size=       0KiB time=N/A bitrate=N/A speed=N/A elapsed=0:00:01.59    \nframe=    0 fps=0.0 q=0.0 size=       0KiB time=N/A bitrate=N/A speed=N/A elapsed=0:00:02.20    \nframe=    0 fps=0.0 q=0.0 size=       0KiB time=N/A bitrate=N/A speed=N/A elapsed=0:00:02.72    \nframe=    0 fps=0.0 q=0.0 size=       0KiB time=N/A bitrate=N/A speed=N/A elapsed=0:00:03.23    \nframe=    0 fps=0.0 q=0.0 size=       0KiB time=N/A bitrate=N/A speed=N/A elapsed=0:00:03.76    \nframe=    0 fps=0.0 q=0.0 size=       0KiB time=N/A bitrate=N/A speed=N/A elapsed=0:00:04.28    \nframe=    0 fps=0.0 q=0.0 size=       0KiB time=N/A bitrate=N/A speed=N/A elapsed=0:00:04.82    \nframe=    0 fps=0.0 q=0.0 size=       0KiB time=N/A bitrate=N/A speed=N/A elapsed=0:00:05.36    \nframe=    0 fps=0.0 q=0.0 size=       0KiB time=N/A bitrate=N/A speed=N/A elapsed=0:00:05.87    \nframe=    0 fps=0.0 q=0.0 size=       0KiB time=N/A bitrate=N/A speed=N/A elapsed=0:00:06.39    \nframe=    0 fps=0.0 q=0.0 size=       0KiB time=N/A bitrate=N/A speed=N/A elapsed=0:00:06.90    \nframe=    0 fps=0.0 q=0.0 size=       0KiB time=N/A bitrate=N/A speed=N/A elapsed=0:00:07.42    \nframe=    0 fps=0.0 q=0.0 size=       0KiB time=N/A bitrate=N/A speed=N/A elapsed=0:00:07.95    \nframe=    0 fps=0.0 q=0.0 size=       0KiB time=N/A bitrate=N/A speed=N/A elapsed=0:00:08.47    \nframe=    0 fps=0.0 q=0.0 size=       0KiB time=N/A bitrate=N/A speed=N/A elapsed=0:00:09.01    \nframe=    0 fps=0.0 q=0.0 size=       0KiB time=N/A bitrate=N/A speed=N/A elapsed=0:00:09.52    \nframe=    0 fps=0.0 q=0.0 size=       0KiB time=N/A bitrate=N/A speed=N/A elapsed=0:00:10.04    \nframe=    1 fps=0.1 q=35.9 size=       0KiB time=-00:00:00.03 bitrate=N/A speed=N/A elapsed=0:00:10.56    \nframe=    1 fps=0.1 q=35.9 size=       0KiB time=-00:00:00.03 bitrate=N/A speed=N/A elapsed=0:00:11.09    \nframe=    1 fps=0.1 q=35.9 size=       0KiB time=-00:00:00.03 bitrate=N/A speed=N/A elapsed=0:00:11.62    \nframe=    2 fps=0.2 q=39.8 size=       0KiB time=00:00:00.00 bitrate=N/A speed=   0x elapsed=0:00:12.16    \nframe=    3 fps=0.2 q=41.8 size=       0KiB time=00:00:00.03 bitrate=  10.6kbits/s speed=0.00263x elapsed=0:00:12.69    \nframe=    3 fps=0.2 q=41.8 size=       0KiB time=00:00:00.03 bitrate=  10.6kbits/s speed=0.00252x elapsed=0:00:13.23    \nframe=    3 fps=0.2 q=41.8 size=       0KiB time=00:00:00.03 bitrate=  10.6kbits/s speed=0.00242x elapsed=0:00:13.75    \nframe=    3 fps=0.2 q=41.8 size=       0KiB time=00:00:00.03 bitrate=  10.6kbits/s speed=0.00234x elapsed=0:00:14.26    \nframe=    4 fps=0.3 q=43.8 size=       0KiB time=00:00:00.06 bitrate=   5.3kbits/s speed=0.00451x elapsed=0:00:14.78    \nframe=    5 fps=0.3 q=42.7 size=       0KiB time=00:00:00.10 bitrate=   3.5kbits/s speed=0.00653x elapsed=0:00:15.31    \nframe=    5 fps=0.3 q=42.7 size=       0KiB time=00:00:00.10 bitrate=   3.5kbits/s speed=0.00631x elapsed=0:00:15.83    \nframe=    5 fps=0.3 q=42.7 size=       0KiB time=00:00:00.10 bitrate=   3.5kbits/s speed=0.00611x elapsed=0:00:16.36    \nframe=    5 fps=0.3 q=42.7 size=       0KiB time=00:00:00.10 bitrate=   3.5kbits/s speed=0.00592x elapsed=0:00:16.88    \nframe=    5 fps=0.3 q=42.7 size=       0KiB time=00:00:00.10 bitrate=   3.5kbits/s speed=0.00574x elapsed=0:00:17.43    \nframe=    5 fps=0.3 q=42.7 size=       0KiB time=00:00:00.10 bitrate=   3.5kbits/s speed=0.00557x elapsed=0:00:17.94    \nframe=    6 fps=0.3 q=37.2 size=       0KiB time=00:00:00.13 bitrate=   2.6kbits/s speed=0.00722x elapsed=0:00:18.46    \nframe=    7 fps=0.4 q=39.6 size=       0KiB time=00:00:00.16 bitrate=   2.1kbits/s speed=0.00877x elapsed=0:00:18.99    \nframe=    7 fps=0.4 q=39.6 size=       0KiB time=00:00:00.16 bitrate=   2.1kbits/s speed=0.00855x elapsed=0:00:19.49    \nframe=    7 fps=0.3 q=39.6 size=       0KiB time=00:00:00.16 bitrate=   2.1kbits/s speed=0.00832x elapsed=0:00:20.02    \nframe=    7 fps=0.3 q=39.6 size=       0KiB time=00:00:00.16 bitrate=   2.1kbits/s speed=0.00808x elapsed=0:00:20.62    \nframe=    7 fps=0.3 q=39.6 size=       0KiB time=00:00:00.16 bitrate=   2.1kbits/s speed=0.00787x elapsed=0:00:21.17    \nframe=    7 fps=0.3 q=39.6 size=       0KiB time=00:00:00.16 bitrate=   2.1kbits/s speed=0.00768x elapsed=0:00:21.70    \nframe=    8 fps=0.4 q=40.0 size=       0KiB time=00:00:00.20 bitrate=   1.8kbits/s speed=0.00898x elapsed=0:00:22.26    \nframe=    8 fps=0.4 q=40.0 size=       0KiB time=00:00:00.20 bitrate=   1.8kbits/s speed=0.00877x elapsed=0:00:22.80    \nframe=    8 fps=0.3 q=40.0 size=       0KiB time=00:00:00.20 bitrate=   1.8kbits/s speed=0.00857x elapsed=0:00:23.33    \nframe=    9 fps=0.4 q=39.5 size=       0KiB time=00:00:00.23 bitrate=   1.5kbits/s speed=0.00978x elapsed=0:00:23.85    \nframe=    9 fps=0.4 q=39.5 size=       0KiB time=00:00:00.23 bitrate=   1.5kbits/s speed=0.00958x elapsed=0:00:24.36    \nframe=    9 fps=0.4 q=39.5 size=       0KiB time=00:00:00.23 bitrate=   1.5kbits/s speed=0.00938x elapsed=0:00:24.88    \nframe=   10 fps=0.4 q=34.6 size=       0KiB time=00:00:00.26 bitrate=   1.3kbits/s speed=0.0105x elapsed=0:00:25.39    \nframe=   10 fps=0.4 q=34.6 size=       0KiB time=00:00:00.26 bitrate=   1.3kbits/s speed=0.0103x elapsed=0:00:25.91    \nframe=   11 fps=0.4 q=39.0 size=       0KiB time=00:00:00.30 bitrate=   1.2kbits/s speed=0.0114x elapsed=0:00:26.42    \nframe=   11 fps=0.4 q=39.0 size=       0KiB time=00:00:00.30 bitrate=   1.2kbits/s speed=0.0111x elapsed=0:00:26.93    \nframe=   12 fps=0.4 q=39.9 size=       0KiB time=00:00:00.33 bitrate=   1.1kbits/s speed=0.0121x elapsed=0:00:27.46    \nframe=   12 fps=0.4 q=39.9 size=       0KiB time=00:00:00.33 bitrate=   1.1kbits/s speed=0.0119x elapsed=0:00:27.96    \nframe=   12 fps=0.4 q=39.9 size=       0KiB time=00:00:00.33 bitrate=   1.1kbits/s speed=0.0117x elapsed=0:00:28.48    \nframe=   13 fps=0.4 q=39.1 size=       0KiB time=00:00:00.36 bitrate=   1.0kbits/s speed=0.0126x elapsed=0:00:29.01    \nframe=   13 fps=0.4 q=39.1 size=       0KiB time=00:00:00.36 bitrate=   1.0kbits/s speed=0.0124x elapsed=0:00:29.56    \nframe=   14 fps=0.5 q=39.6 size=       0KiB time=00:00:00.40 bitrate=   0.9kbits/s speed=0.0133x elapsed=0:00:30.10    \nframe=   14 fps=0.5 q=39.6 size=       0KiB time=00:00:00.40 bitrate=   0.9kbits/s speed=0.0131x elapsed=0:00:30.60    \nframe=   14 fps=0.4 q=39.6 size=       0KiB time=00:00:00.40 bitrate=   0.9kbits/s speed=0.0128x elapsed=0:00:31.13    \nframe=   14 fps=0.4 q=39.6 size=       0KiB time=00:00:00.40 bitrate=   0.9kbits/s speed=0.0126x elapsed=0:00:31.65    \nframe=   15 fps=0.5 q=35.5 size=       0KiB time=00:00:00.43 bitrate=   0.8kbits/s speed=0.0135x elapsed=0:00:32.19    \nframe=   16 fps=0.5 q=37.6 size=       0KiB time=00:00:00.46 bitrate=   0.8kbits/s speed=0.0143x elapsed=0:00:32.73    \nframe=   16 fps=0.5 q=37.6 size=       0KiB time=00:00:00.46 bitrate=   0.8kbits/s speed=0.014x elapsed=0:00:33.28    \nframe=   17 fps=0.5 q=39.6 size=       0KiB time=00:00:00.50 bitrate=   0.7kbits/s speed=0.0148x elapsed=0:00:33.79    \nframe=   17 fps=0.5 q=39.6 size=       0KiB time=00:00:00.50 bitrate=   0.7kbits/s speed=0.0146x elapsed=0:00:34.31    \nframe=   17 fps=0.5 q=39.6 size=       0KiB time=00:00:00.50 bitrate=   0.7kbits/s speed=0.0144x elapsed=0:00:34.82    \nframe=   17 fps=0.5 q=39.6 size=       0KiB time=00:00:00.50 bitrate=   0.7kbits/s speed=0.0141x elapsed=0:00:35.35    \nframe=   18 fps=0.5 q=39.3 size=       0KiB time=00:00:00.53 bitrate=   0.7kbits/s speed=0.0149x elapsed=0:00:35.90    \nframe=   18 fps=0.5 q=39.3 size=       0KiB time=00:00:00.53 bitrate=   0.7kbits/s speed=0.0146x elapsed=0:00:36.43    \nframe=   19 fps=0.5 q=35.7 size=       0KiB time=00:00:00.56 bitrate=   0.6kbits/s speed=0.0153x elapsed=0:00:36.94    \nframe=   19 fps=0.5 q=35.7 size=       0KiB time=00:00:00.56 bitrate=   0.6kbits/s speed=0.0151x elapsed=0:00:37.45    \nframe=   20 fps=0.5 q=37.8 size=       0KiB time=00:00:00.60 bitrate=   0.6kbits/s speed=0.0158x elapsed=0:00:37.97    \nframe=   20 fps=0.5 q=37.8 size=       0KiB time=00:00:00.60 bitrate=   0.6kbits/s speed=0.0156x elapsed=0:00:38.49    \nframe=   20 fps=0.5 q=37.8 size=       0KiB time=00:00:00.60 bitrate=   0.6kbits/s speed=0.0154x elapsed=0:00:39.00    \nframe=   21 fps=0.5 q=39.5 size=       0KiB time=00:00:00.63 bitrate=   0.6kbits/s speed=0.016x elapsed=0:00:39.53    \nframe=   21 fps=0.5 q=39.5 size=       0KiB time=00:00:00.63 bitrate=   0.6kbits/s speed=0.0158x elapsed=0:00:40.05    \nframe=   21 fps=0.5 q=39.5 size=       0KiB time=00:00:00.63 bitrate=   0.6kbits/s speed=0.0156x elapsed=0:00:40.57    \nframe=   21 fps=0.5 q=39.5 size=       0KiB time=00:00:00.63 bitrate=   0.6kbits/s speed=0.0154x elapsed=0:00:41.08    \nframe=   22 fps=0.5 q=39.8 size=       0KiB time=00:00:00.66 bitrate=   0.5kbits/s speed=0.016x elapsed=0:00:41.60    \nframe=   22 fps=0.5 q=39.8 size=       0KiB time=00:00:00.66 bitrate=   0.5kbits/s speed=0.0158x elapsed=0:00:42.11    \nframe=   22 fps=0.5 q=39.8 size=       0KiB time=00:00:00.66 bitrate=   0.5kbits/s speed=0.0156x elapsed=0:00:42.65    \nframe=   22 fps=0.5 q=39.8 size=       0KiB time=00:00:00.66 bitrate=   0.5kbits/s speed=0.0154x elapsed=0:00:43.17    \nframe=   22 fps=0.5 q=39.8 size=       0KiB time=00:00:00.66 bitrate=   0.5kbits/s speed=0.0152x elapsed=0:00:43.74    \nframe=   23 fps=0.5 q=35.5 size=       0KiB time=00:00:00.70 bitrate=   0.5kbits/s speed=0.0158x elapsed=0:00:44.30    \nframe=   23 fps=0.5 q=35.5 size=       0KiB time=00:00:00.70 bitrate=   0.5kbits/s speed=0.0156x elapsed=0:00:44.83    \nframe=   24 fps=0.5 q=37.8 size=       0KiB time=00:00:00.73 bitrate=   0.5kbits/s speed=0.0162x elapsed=0:00:45.38    \nframe=   24 fps=0.5 q=37.8 size=       0KiB time=00:00:00.73 bitrate=   0.5kbits/s speed=0.016x elapsed=0:00:45.91    \nframe=   24 fps=0.5 q=37.8 size=       0KiB time=00:00:00.73 bitrate=   0.5kbits/s speed=0.0158x elapsed=0:00:46.44    \nframe=   25 fps=0.5 q=40.2 size=       0KiB time=00:00:00.76 bitrate=   0.5kbits/s speed=0.0163x elapsed=0:00:46.99    \nframe=   25 fps=0.5 q=40.2 size=       0KiB time=00:00:00.76 bitrate=   0.5kbits/s speed=0.0161x elapsed=0:00:47.54    \nframe=   25 fps=0.5 q=40.2 size=       0KiB time=00:00:00.76 bitrate=   0.5kbits/s speed=0.0159x elapsed=0:00:48.09    \nframe=   25 fps=0.5 q=40.2 size=       0KiB time=00:00:00.76 bitrate=   0.5kbits/s speed=0.0158x elapsed=0:00:48.61    \nframe=   25 fps=0.5 q=40.2 size=       0KiB time=00:00:00.76 bitrate=   0.5kbits/s speed=0.0156x elapsed=0:00:49.13    \nframe=   26 fps=0.5 q=40.3 size=     256KiB time=00:00:00.80 bitrate=2621.9kbits/s speed=0.0161x elapsed=0:00:49.67    \nframe=   26 fps=0.5 q=40.3 size=     256KiB time=00:00:00.80 bitrate=2621.9kbits/s speed=0.0159x elapsed=0:00:50.20    \nframe=   26 fps=0.5 q=40.3 size=     256KiB time=00:00:00.80 bitrate=2621.9kbits/s speed=0.0158x elapsed=0:00:50.73    \nframe=   26 fps=0.5 q=40.3 size=     256KiB time=00:00:00.80 bitrate=2621.9kbits/s speed=0.0156x elapsed=0:00:51.27    \nframe=   26 fps=0.5 q=40.3 size=     256KiB time=00:00:00.80 bitrate=2621.9kbits/s speed=0.0154x elapsed=0:00:51.78    \nframe=   26 fps=0.5 q=40.3 size=     256KiB time=00:00:00.80 bitrate=2621.9kbits/s speed=0.0153x elapsed=0:00:52.31    \nframe=   26 fps=0.5 q=40.3 size=     256KiB time=00:00:00.80 bitrate=2621.9kbits/s speed=0.0151x elapsed=0:00:52.84    \nframe=   26 fps=0.5 q=40.3 size=     256KiB time=00:00:00.80 bitrate=2621.9kbits/s speed=0.015x elapsed=0:00:53.39    \nframe=   27 fps=0.5 q=36.1 size=     256KiB time=00:00:00.83 bitrate=2517.0kbits/s speed=0.0155x elapsed=0:00:53.93    \nframe=   28 fps=0.5 q=38.5 size=     256KiB time=00:00:00.86 bitrate=2420.2kbits/s speed=0.0159x elapsed=0:00:54.46    \nframe=   28 fps=0.5 q=38.5 size=     256KiB time=00:00:00.86 bitrate=2420.2kbits/s speed=0.0158x elapsed=0:00:55.01    \nframe=   28 fps=0.5 q=38.5 size=     256KiB time=00:00:00.86 bitrate=2420.2kbits/s speed=0.0156x elapsed=0:00:55.55    \nframe=   28 fps=0.5 q=38.5 size=     256KiB time=00:00:00.86 bitrate=2420.2kbits/s speed=0.0155x elapsed=0:00:56.06    \nframe=   28 fps=0.5 q=38.5 size=     256KiB time=00:00:00.86 bitrate=2420.2kbits/s speed=0.0153x elapsed=0:00:56.58    \nframe=   28 fps=0.5 q=38.5 size=     256KiB time=00:00:00.86 bitrate=2420.2kbits/s speed=0.0152x elapsed=0:00:57.13    \nframe=   28 fps=0.5 q=38.5 size=     256KiB time=00:00:00.86 bitrate=2420.2kbits/s speed=0.015x elapsed=0:00:57.68    \nframe=   29 fps=0.5 q=40.4 size=     256KiB time=00:00:00.90 bitrate=2330.6kbits/s speed=0.0155x elapsed=0:00:58.23    \nframe=   29 fps=0.5 q=40.4 size=     256KiB time=00:00:00.90 bitrate=2330.6kbits/s speed=0.0153x elapsed=0:00:58.78    \nframe=   29 fps=0.5 q=40.4 size=     256KiB time=00:00:00.90 bitrate=2330.6kbits/s speed=0.0152x elapsed=0:00:59.31    \nframe=   30 fps=0.5 q=40.3 size=     256KiB time=00:00:00.93 bitrate=2247.3kbits/s speed=0.0156x elapsed=0:00:59.83    \nframe=   30 fps=0.5 q=40.3 size=     256KiB time=00:00:00.93 bitrate=2247.3kbits/s speed=0.0155x elapsed=0:01:00.34    \nframe=   30 fps=0.5 q=40.3 size=     256KiB time=00:00:00.93 bitrate=2247.3kbits/s speed=0.0153x elapsed=0:01:00.86    \nframe=   30 fps=0.5 q=40.3 size=     256KiB time=00:00:00.93 bitrate=2247.3kbits/s speed=0.0152x elapsed=0:01:01.40    \nframe=   30 fps=0.5 q=40.3 size=     256KiB time=00:00:00.93 bitrate=2247.3kbits/s speed=0.0151x elapsed=0:01:01.93    \nframe=   30 fps=0.5 q=40.3 size=     256KiB time=00:00:00.93 bitrate=2247.3kbits/s speed=0.0149x elapsed=0:01:02.46    \nframe=   31 fps=0.5 q=35.4 size=     256KiB time=00:00:00.96 bitrate=2169.8kbits/s speed=0.0153x elapsed=0:01:02.99    \nframe=   31 fps=0.5 q=35.4 size=     256KiB time=00:00:00.96 bitrate=2169.8kbits/s speed=0.0152x elapsed=0:01:03.51    \nframe=   31 fps=0.5 q=35.4 size=     256KiB time=00:00:00.96 bitrate=2169.8kbits/s speed=0.0151x elapsed=0:01:04.03    \nframe=   32 fps=0.5 q=38.1 size=     256KiB time=00:00:01.00 bitrate=2097.5kbits/s speed=0.0155x elapsed=0:01:04.55    \nframe=   32 fps=0.5 q=38.1 size=     256KiB time=00:00:01.00 bitrate=2097.5kbits/s speed=0.0154x elapsed=0:01:05.06    \nframe=   32 fps=0.5 q=38.1 size=     256KiB time=00:00:01.00 bitrate=2097.5kbits/s speed=0.0152x elapsed=0:01:05.59    \nframe=   33 fps=0.5 q=39.9 size=     256KiB time=00:00:01.03 bitrate=2029.8kbits/s speed=0.0156x elapsed=0:01:06.11    \nframe=   33 fps=0.5 q=39.9 size=     256KiB time=00:00:01.03 bitrate=2029.8kbits/s speed=0.0155x elapsed=0:01:06.63    \nframe=   34 fps=0.5 q=40.1 size=     256KiB time=00:00:01.06 bitrate=1966.4kbits/s speed=0.0159x elapsed=0:01:07.17    \nframe=   34 fps=0.5 q=40.1 size=     256KiB time=00:00:01.06 bitrate=1966.4kbits/s speed=0.0158x elapsed=0:01:07.71    \nframe=   34 fps=0.5 q=40.1 size=     256KiB time=00:00:01.06 bitrate=1966.4kbits/s speed=0.0156x elapsed=0:01:08.23    \nframe=   34 fps=0.5 q=40.1 size=     256KiB time=00:00:01.06 bitrate=1966.4kbits/s speed=0.0155x elapsed=0:01:08.75    \nframe=   34 fps=0.5 q=40.1 size=     256KiB time=00:00:01.06 bitrate=1966.4kbits/s speed=0.0154x elapsed=0:01:09.27    \nframe=   34 fps=0.5 q=40.1 size=     256KiB time=00:00:01.06 bitrate=1966.4kbits/s speed=0.0153x elapsed=0:01:09.78    \nframe=   35 fps=0.5 q=35.4 size=     256KiB time=00:00:01.10 bitrate=1906.8kbits/s speed=0.0156x elapsed=0:01:10.30    \nframe=   35 fps=0.5 q=35.4 size=     256KiB time=00:00:01.10 bitrate=1906.8kbits/s speed=0.0155x elapsed=0:01:10.82    \nframe=   35 fps=0.5 q=35.4 size=     256KiB time=00:00:01.10 bitrate=1906.8kbits/s speed=0.0154x elapsed=0:01:11.35    \nframe=   35 fps=0.5 q=35.4 size=     256KiB time=00:00:01.10 bitrate=1906.8kbits/s speed=0.0153x elapsed=0:01:11.88    \nframe=   36 fps=0.5 q=37.7 size=     256KiB time=00:00:01.13 bitrate=1850.7kbits/s speed=0.0156x elapsed=0:01:12.44    \nframe=   36 fps=0.5 q=37.7 size=     256KiB time=00:00:01.13 bitrate=1850.7kbits/s speed=0.0155x elapsed=0:01:12.95    \nframe=   37 fps=0.5 q=39.8 size=     256KiB time=00:00:01.16 bitrate=1797.9kbits/s speed=0.0159x elapsed=0:01:13.47    \nframe=   37 fps=0.5 q=39.8 size=     256KiB time=00:00:01.16 bitrate=1797.9kbits/s speed=0.0158x elapsed=0:01:14.00    \nframe=   37 fps=0.5 q=39.8 size=     256KiB time=00:00:01.16 bitrate=1797.9kbits/s speed=0.0157x elapsed=0:01:14.51    \nframe=   38 fps=0.5 q=39.4 size=     256KiB time=00:00:01.20 bitrate=1747.9kbits/s speed=0.016x elapsed=0:01:15.04    \nframe=   38 fps=0.5 q=39.4 size=     256KiB time=00:00:01.20 bitrate=1747.9kbits/s speed=0.0159x elapsed=0:01:15.56    \nframe=   38 fps=0.5 q=39.4 size=     256KiB time=00:00:01.20 bitrate=1747.9kbits/s speed=0.0158x elapsed=0:01:16.08    \nframe=   38 fps=0.5 q=39.4 size=     256KiB time=00:00:01.20 bitrate=1747.9kbits/s speed=0.0157x elapsed=0:01:16.59    \nframe=   38 fps=0.5 q=39.4 size=     256KiB time=00:00:01.20 bitrate=1747.9kbits/s speed=0.0156x elapsed=0:01:17.11    \nframe=   39 fps=0.5 q=35.7 size=     256KiB time=00:00:01.23 bitrate=1700.7kbits/s speed=0.0159x elapsed=0:01:17.63    \nframe=   39 fps=0.5 q=35.7 size=     256KiB time=00:00:01.23 bitrate=1700.7kbits/s speed=0.0158x elapsed=0:01:18.13    \nframe=   39 fps=0.5 q=35.7 size=     256KiB time=00:00:01.23 bitrate=1700.7kbits/s speed=0.0157x elapsed=0:01:18.66    \nframe=   39 fps=0.5 q=35.7 size=     256KiB time=00:00:01.23 bitrate=1700.7kbits/s speed=0.0156x elapsed=0:01:19.17    \nframe=   40 fps=0.5 q=37.4 size=     256KiB time=00:00:01.26 bitrate=1655.9kbits/s speed=0.0159x elapsed=0:01:19.71    \nframe=   40 fps=0.5 q=37.4 size=     256KiB time=00:00:01.26 bitrate=1655.9kbits/s speed=0.0158x elapsed=0:01:20.24    \nframe=   40 fps=0.5 q=37.4 size=     256KiB time=00:00:01.26 bitrate=1655.9kbits/s speed=0.0157x elapsed=0:01:20.76    \nframe=   40 fps=0.5 q=37.4 size=     256KiB time=00:00:01.26 bitrate=1655.9kbits/s speed=0.0156x elapsed=0:01:21.29    \nframe=   41 fps=0.5 q=39.5 size=     256KiB time=00:00:01.30 bitrate=1613.5kbits/s speed=0.0159x elapsed=0:01:21.79    \nframe=   41 fps=0.5 q=39.5 size=     256KiB time=00:00:01.30 bitrate=1613.5kbits/s speed=0.0158x elapsed=0:01:22.31    \nframe=   42 fps=0.5 q=36.3 size=     256KiB time=00:00:01.33 bitrate=1573.1kbits/s speed=0.0161x elapsed=0:01:22.83    \nframe=   42 fps=0.5 q=36.3 size=     256KiB time=00:00:01.33 bitrate=1573.1kbits/s speed=0.016x elapsed=0:01:23.39    \nframe=   43 fps=0.5 q=37.7 size=     256KiB time=00:00:01.36 bitrate=1534.8kbits/s speed=0.0163x elapsed=0:01:23.90    \nframe=   43 fps=0.5 q=37.7 size=     256KiB time=00:00:01.36 bitrate=1534.8kbits/s speed=0.0162x elapsed=0:01:24.42    \nframe=   44 fps=0.5 q=39.5 size=     256KiB time=00:00:01.40 bitrate=1498.2kbits/s speed=0.0165x elapsed=0:01:24.93    \nframe=   44 fps=0.5 q=39.5 size=     256KiB time=00:00:01.40 bitrate=1498.2kbits/s speed=0.0164x elapsed=0:01:25.46    \nframe=   44 fps=0.5 q=39.5 size=     256KiB time=00:00:01.40 bitrate=1498.2kbits/s speed=0.0163x elapsed=0:01:25.99    \nframe=   44 fps=0.5 q=39.5 size=     256KiB time=00:00:01.40 bitrate=1498.2kbits/s speed=0.0162x elapsed=0:01:26.52    \nframe=   45 fps=0.5 q=39.7 size=     256KiB time=00:00:01.43 bitrate=1463.4kbits/s speed=0.0165x elapsed=0:01:27.04    \nframe=   45 fps=0.5 q=39.7 size=     256KiB time=00:00:01.43 bitrate=1463.4kbits/s speed=0.0164x elapsed=0:01:27.56    \nframe=   46 fps=0.5 q=35.1 size=     256KiB time=00:00:01.46 bitrate=1430.1kbits/s speed=0.0166x elapsed=0:01:28.08    \nframe=   46 fps=0.5 q=35.1 size=     256KiB time=00:00:01.46 bitrate=1430.1kbits/s speed=0.0166x elapsed=0:01:28.59    \nframe=   47 fps=0.5 q=37.6 size=     256KiB time=00:00:01.50 bitrate=1398.3kbits/s speed=0.0168x elapsed=0:01:29.11    \nframe=   47 fps=0.5 q=37.6 size=     256KiB time=00:00:01.50 bitrate=1398.3kbits/s speed=0.0167x elapsed=0:01:29.64    \nframe=   48 fps=0.5 q=39.7 size=     256KiB time=00:00:01.53 bitrate=1367.9kbits/s speed=0.017x elapsed=0:01:30.15    \nframe=   48 fps=0.5 q=39.7 size=     256KiB time=00:00:01.53 bitrate=1367.9kbits/s speed=0.0169x elapsed=0:01:30.69    \nframe=   48 fps=0.5 q=39.7 size=     256KiB time=00:00:01.53 bitrate=1367.9kbits/s speed=0.0168x elapsed=0:01:31.22    \nframe=   48 fps=0.5 q=39.7 size=     256KiB time=00:00:01.53 bitrate=1367.9kbits/s speed=0.0167x elapsed=0:01:31.78    \nframe=   48 fps=0.5 q=39.7 size=     256KiB time=00:00:01.53 bitrate=1367.9kbits/s speed=0.0166x elapsed=0:01:32.30    \nframe=   48 fps=0.5 q=39.7 size=     256KiB time=00:00:01.53 bitrate=1367.9kbits/s speed=0.0165x elapsed=0:01:32.87    \nframe=   49 fps=0.5 q=40.2 size=     256KiB time=00:00:01.56 bitrate=1338.8kbits/s speed=0.0168x elapsed=0:01:33.39    \nframe=   49 fps=0.5 q=40.2 size=     256KiB time=00:00:01.56 bitrate=1338.8kbits/s speed=0.0167x elapsed=0:01:33.91    \nframe=   49 fps=0.5 q=40.2 size=     256KiB time=00:00:01.56 bitrate=1338.8kbits/s speed=0.0166x elapsed=0:01:34.44    \nframe=   49 fps=0.5 q=40.2 size=     256KiB time=00:00:01.56 bitrate=1338.8kbits/s speed=0.0165x elapsed=0:01:34.96    \nframe=   50 fps=0.5 q=35.7 size=     256KiB time=00:00:01.60 bitrate=1310.9kbits/s speed=0.0168x elapsed=0:01:35.47    \nframe=   51 fps=0.5 q=38.9 size=     512KiB time=00:00:01.63 bitrate=2568.2kbits/s speed=0.017x elapsed=0:01:36.01    \nframe=   51 fps=0.5 q=38.9 size=     512KiB time=00:00:01.63 bitrate=2568.2kbits/s speed=0.0169x elapsed=0:01:36.52    \nframe=   52 fps=0.5 q=40.3 size=     512KiB time=00:00:01.66 bitrate=2516.8kbits/s speed=0.0172x elapsed=0:01:37.02    \nframe=   52 fps=0.5 q=40.3 size=     512KiB time=00:00:01.66 bitrate=2516.8kbits/s speed=0.0171x elapsed=0:01:37.55    \nframe=   53 fps=0.5 q=40.1 size=     512KiB time=00:00:01.70 bitrate=2467.4kbits/s speed=0.0173x elapsed=0:01:38.07    \nframe=   53 fps=0.5 q=40.1 size=     512KiB time=00:00:01.70 bitrate=2467.4kbits/s speed=0.0172x elapsed=0:01:38.58    \nframe=   54 fps=0.5 q=40.3 size=     512KiB time=00:00:01.73 bitrate=2420.0kbits/s speed=0.0175x elapsed=0:01:39.10    \nframe=   55 fps=0.6 q=35.9 size=     512KiB time=00:00:01.76 bitrate=2374.3kbits/s speed=0.0177x elapsed=0:01:39.62    \nframe=   55 fps=0.5 q=35.9 size=     512KiB time=00:00:01.76 bitrate=2374.3kbits/s speed=0.0176x elapsed=0:01:40.14    \nframe=   56 fps=0.6 q=37.6 size=     512KiB time=00:00:01.80 bitrate=2330.4kbits/s speed=0.0179x elapsed=0:01:40.66    \nframe=   56 fps=0.6 q=37.6 size=     512KiB time=00:00:01.80 bitrate=2330.4kbits/s speed=0.0178x elapsed=0:01:41.17    \nframe=   57 fps=0.6 q=40.3 size=     512KiB time=00:00:01.83 bitrate=2288.0kbits/s speed=0.018x elapsed=0:01:41.68    \nframe=   57 fps=0.6 q=40.3 size=     512KiB time=00:00:01.83 bitrate=2288.0kbits/s speed=0.0179x elapsed=0:01:42.21    \nframe=   58 fps=0.6 q=36.1 size=     512KiB time=00:00:01.86 bitrate=2247.1kbits/s speed=0.0182x elapsed=0:01:42.72    \nframe=   59 fps=0.6 q=38.2 size=     512KiB time=00:00:01.90 bitrate=2207.7kbits/s speed=0.0184x elapsed=0:01:43.23    \nframe=   61 fps=0.6 q=40.4 size=     512KiB time=00:00:01.96 bitrate=2132.9kbits/s speed=0.019x elapsed=0:01:43.75    \nframe=   61 fps=0.6 q=40.4 size=     512KiB time=00:00:01.96 bitrate=2132.9kbits/s speed=0.0189x elapsed=0:01:44.27    \nframe=   62 fps=0.6 q=36.7 size=     512KiB time=00:00:02.00 bitrate=2097.3kbits/s speed=0.0191x elapsed=0:01:44.78    \nframe=   62 fps=0.6 q=36.7 size=     512KiB time=00:00:02.00 bitrate=2097.3kbits/s speed=0.019x elapsed=0:01:45.29    \nframe=   63 fps=0.6 q=38.4 size=     512KiB time=00:00:02.03 bitrate=2062.9kbits/s speed=0.0192x elapsed=0:01:45.82    \nframe=   63 fps=0.6 q=38.4 size=     512KiB time=00:00:02.03 bitrate=2062.9kbits/s speed=0.0191x elapsed=0:01:46.34    \nframe=   63 fps=0.6 q=38.4 size=     512KiB time=00:00:02.03 bitrate=2062.9kbits/s speed=0.019x elapsed=0:01:46.91    \nframe=   63 fps=0.6 q=38.4 size=     512KiB time=00:00:02.03 bitrate=2062.9kbits/s speed=0.0189x elapsed=0:01:47.44    \nframe=   63 fps=0.6 q=38.4 size=     512KiB time=00:00:02.03 bitrate=2062.9kbits/s speed=0.0188x elapsed=0:01:47.98    \nframe=   63 fps=0.6 q=38.4 size=     512KiB time=00:00:02.03 bitrate=2062.9kbits/s speed=0.0187x elapsed=0:01:48.51    \nframe=   63 fps=0.6 q=38.4 size=     512KiB time=00:00:02.03 bitrate=2062.9kbits/s speed=0.0186x elapsed=0:01:49.05    \nframe=   63 fps=0.6 q=38.4 size=     512KiB time=00:00:02.03 bitrate=2062.9kbits/s speed=0.0186x elapsed=0:01:49.58    \nframe=   65 fps=0.6 q=40.1 size=     512KiB time=00:00:02.10 bitrate=1997.5kbits/s speed=0.0191x elapsed=0:01:50.09    \nframe=   66 fps=0.6 q=36.1 size=     512KiB time=00:00:02.13 bitrate=1966.2kbits/s speed=0.0193x elapsed=0:01:50.62    \nframe=   66 fps=0.6 q=36.1 size=     512KiB time=00:00:02.13 bitrate=1966.2kbits/s speed=0.0192x elapsed=0:01:51.17    \nframe=   66 fps=0.6 q=36.1 size=     512KiB time=00:00:02.13 bitrate=1966.2kbits/s speed=0.0191x elapsed=0:01:51.69    \nframe=   66 fps=0.6 q=36.1 size=     512KiB time=00:00:02.13 bitrate=1966.2kbits/s speed=0.019x elapsed=0:01:52.21    \nframe=   66 fps=0.6 q=36.1 size=     512KiB time=00:00:02.13 bitrate=1966.2kbits/s speed=0.0189x elapsed=0:01:52.73    \nframe=   66 fps=0.6 q=36.1 size=     512KiB time=00:00:02.13 bitrate=1966.2kbits/s speed=0.0188x elapsed=0:01:53.24    \nframe=   67 fps=0.6 q=38.4 size=     512KiB time=00:00:02.16 bitrate=1936.0kbits/s speed=0.019x elapsed=0:01:53.79    \nframe=   67 fps=0.6 q=38.4 size=     512KiB time=00:00:02.16 bitrate=1936.0kbits/s speed=0.019x elapsed=0:01:54.29    \nframe=   67 fps=0.6 q=38.4 size=     512KiB time=00:00:02.16 bitrate=1936.0kbits/s speed=0.0189x elapsed=0:01:54.81    \nframe=   67 fps=0.6 q=38.4 size=     512KiB time=00:00:02.16 bitrate=1936.0kbits/s speed=0.0188x elapsed=0:01:55.33    \nframe=   67 fps=0.6 q=38.4 size=     512KiB time=00:00:02.16 bitrate=1936.0kbits/s speed=0.0187x elapsed=0:01:55.86    \nframe=   69 fps=0.6 q=36.4 size=     512KiB time=00:00:02.23 bitrate=1878.2kbits/s speed=0.0192x elapsed=0:01:56.37    \nframe=   69 fps=0.6 q=36.4 size=     512KiB time=00:00:02.23 bitrate=1878.2kbits/s speed=0.0191x elapsed=0:01:56.89    \nframe=   69 fps=0.6 q=36.4 size=     512KiB time=00:00:02.23 bitrate=1878.2kbits/s speed=0.019x elapsed=0:01:57.40    \nframe=   69 fps=0.6 q=36.4 size=     512KiB time=00:00:02.23 bitrate=1878.2kbits/s speed=0.0189x elapsed=0:01:57.92    \nframe=   69 fps=0.6 q=36.4 size=     512KiB time=00:00:02.23 bitrate=1878.2kbits/s speed=0.0189x elapsed=0:01:58.44    \nframe=   70 fps=0.6 q=38.1 size=     512KiB time=00:00:02.26 bitrate=1850.6kbits/s speed=0.0191x elapsed=0:01:58.98    \nframe=   70 fps=0.6 q=38.1 size=     512KiB time=00:00:02.26 bitrate=1850.6kbits/s speed=0.019x elapsed=0:01:59.51    \nframe=   70 fps=0.6 q=38.1 size=     512KiB time=00:00:02.26 bitrate=1850.6kbits/s speed=0.0189x elapsed=0:02:00.05    \nframe=   71 fps=0.6 q=40.4 size=     512KiB time=00:00:02.30 bitrate=1823.8kbits/s speed=0.0191x elapsed=0:02:00.57    \nframe=   71 fps=0.6 q=40.4 size=     512KiB time=00:00:02.30 bitrate=1823.8kbits/s speed=0.019x elapsed=0:02:01.09    \nframe=   71 fps=0.6 q=40.4 size=     512KiB time=00:00:02.30 bitrate=1823.8kbits/s speed=0.0189x elapsed=0:02:01.62    \nframe=   72 fps=0.6 q=36.5 size=     512KiB time=00:00:02.33 bitrate=1797.7kbits/s speed=0.0191x elapsed=0:02:02.14    \nframe=   72 fps=0.6 q=36.5 size=     512KiB time=00:00:02.33 bitrate=1797.7kbits/s speed=0.019x elapsed=0:02:02.66    \nframe=   72 fps=0.6 q=36.5 size=     512KiB time=00:00:02.33 bitrate=1797.7kbits/s speed=0.0189x elapsed=0:02:03.17    \nframe=   72 fps=0.6 q=36.5 size=     512KiB time=00:00:02.33 bitrate=1797.7kbits/s speed=0.0189x elapsed=0:02:03.71    \nframe=   72 fps=0.6 q=36.5 size=     512KiB time=00:00:02.33 bitrate=1797.7kbits/s speed=0.0188x elapsed=0:02:04.22    \nframe=   73 fps=0.6 q=38.4 size=     512KiB time=00:00:02.36 bitrate=1772.4kbits/s speed=0.019x elapsed=0:02:04.74    \nframe=   73 fps=0.6 q=38.4 size=     512KiB time=00:00:02.36 bitrate=1772.4kbits/s speed=0.0189x elapsed=0:02:05.25    \nframe=   75 fps=0.6 q=40.4 size=     768KiB time=00:00:02.43 bitrate=2585.7kbits/s speed=0.0193x elapsed=0:02:05.77    \nframe=   76 fps=0.6 q=37.0 size=     768KiB time=00:00:02.46 bitrate=2550.7kbits/s speed=0.0195x elapsed=0:02:06.29    \nframe=   76 fps=0.6 q=37.0 size=     768KiB time=00:00:02.46 bitrate=2550.7kbits/s speed=0.0194x elapsed=0:02:06.88    \nframe=   76 fps=0.6 q=37.0 size=     768KiB time=00:00:02.46 bitrate=2550.7kbits/s speed=0.0194x elapsed=0:02:07.43    \nframe=   76 fps=0.6 q=37.0 size=     768KiB time=00:00:02.46 bitrate=2550.7kbits/s speed=0.0193x elapsed=0:02:07.97    \nframe=   76 fps=0.6 q=37.0 size=     768KiB time=00:00:02.46 bitrate=2550.7kbits/s speed=0.0192x elapsed=0:02:08.50    \nframe=   76 fps=0.6 q=37.0 size=     768KiB time=00:00:02.46 bitrate=2550.7kbits/s speed=0.0191x elapsed=0:02:09.03    \nframe=   77 fps=0.6 q=38.7 size=     768KiB time=00:00:02.50 bitrate=2516.7kbits/s speed=0.0193x elapsed=0:02:09.57    \nframe=   77 fps=0.6 q=38.7 size=     768KiB time=00:00:02.50 bitrate=2516.7kbits/s speed=0.0192x elapsed=0:02:10.09    \nframe=   77 fps=0.6 q=38.7 size=     768KiB time=00:00:02.50 bitrate=2516.7kbits/s speed=0.0191x elapsed=0:02:10.66    \nframe=   77 fps=0.6 q=38.7 size=     768KiB time=00:00:02.50 bitrate=2516.7kbits/s speed=0.0191x elapsed=0:02:11.19    \nframe=   77 fps=0.6 q=38.7 size=     768KiB time=00:00:02.50 bitrate=2516.7kbits/s speed=0.019x elapsed=0:02:11.79    \nframe=   78 fps=0.6 q=40.1 size=     768KiB time=00:00:02.53 bitrate=2483.6kbits/s speed=0.0191x elapsed=0:02:12.35    \nframe=   78 fps=0.6 q=40.1 size=     768KiB time=00:00:02.53 bitrate=2483.6kbits/s speed=0.0191x elapsed=0:02:12.97    \nframe=   78 fps=0.6 q=40.1 size=     768KiB time=00:00:02.53 bitrate=2483.6kbits/s speed=0.019x elapsed=0:02:13.56    \nframe=   78 fps=0.6 q=40.1 size=     768KiB time=00:00:02.53 bitrate=2483.6kbits/s speed=0.0189x elapsed=0:02:14.13    \nframe=   79 fps=0.6 q=40.1 size=     768KiB time=00:00:02.56 bitrate=2451.4kbits/s speed=0.0191x elapsed=0:02:14.71    \nframe=   79 fps=0.6 q=40.1 size=     768KiB time=00:00:02.56 bitrate=2451.4kbits/s speed=0.019x elapsed=0:02:15.29    \nframe=   79 fps=0.6 q=40.1 size=     768KiB time=00:00:02.56 bitrate=2451.4kbits/s speed=0.0189x elapsed=0:02:15.86    \nframe=   79 fps=0.6 q=40.1 size=     768KiB time=00:00:02.56 bitrate=2451.4kbits/s speed=0.0188x elapsed=0:02:16.42    \nframe=   79 fps=0.6 q=40.1 size=     768KiB time=00:00:02.56 bitrate=2451.4kbits/s speed=0.0187x elapsed=0:02:16.99    \nframe=   79 fps=0.6 q=40.1 size=     768KiB time=00:00:02.56 bitrate=2451.4kbits/s speed=0.0187x elapsed=0:02:17.51    \nframe=   79 fps=0.6 q=40.1 size=     768KiB time=00:00:02.56 bitrate=2451.4kbits/s speed=0.0186x elapsed=0:02:18.03    \nframe=   79 fps=0.6 q=40.1 size=     768KiB time=00:00:02.56 bitrate=2451.4kbits/s speed=0.0185x elapsed=0:02:18.55    \nframe=   79 fps=0.6 q=40.1 size=     768KiB time=00:00:02.56 bitrate=2451.4kbits/s speed=0.0185x elapsed=0:02:19.08    \nframe=   80 fps=0.6 q=35.8 size=     768KiB time=00:00:02.60 bitrate=2419.9kbits/s speed=0.0186x elapsed=0:02:19.64    \nframe=   80 fps=0.6 q=35.8 size=     768KiB time=00:00:02.60 bitrate=2419.9kbits/s speed=0.0186x elapsed=0:02:20.15    \nframe=   80 fps=0.6 q=35.8 size=     768KiB time=00:00:02.60 bitrate=2419.9kbits/s speed=0.0185x elapsed=0:02:20.67    \nframe=   80 fps=0.6 q=35.8 size=     768KiB time=00:00:02.60 bitrate=2419.9kbits/s speed=0.0184x elapsed=0:02:21.19    \nframe=   81 fps=0.6 q=38.7 size=     768KiB time=00:00:02.63 bitrate=2389.3kbits/s speed=0.0186x elapsed=0:02:21.71    \nframe=   81 fps=0.6 q=38.7 size=     768KiB time=00:00:02.63 bitrate=2389.3kbits/s speed=0.0185x elapsed=0:02:22.23    \nframe=   81 fps=0.6 q=38.7 size=     768KiB time=00:00:02.63 bitrate=2389.3kbits/s speed=0.0184x elapsed=0:02:22.75    \nframe=   83 fps=0.6 q=40.3 size=     768KiB time=00:00:02.70 bitrate=2330.3kbits/s speed=0.0188x elapsed=0:02:23.28    \nframe=   83 fps=0.6 q=40.3 size=     768KiB time=00:00:02.70 bitrate=2330.3kbits/s speed=0.0188x elapsed=0:02:23.86    \nframe=   83 fps=0.6 q=40.3 size=     768KiB time=00:00:02.70 bitrate=2330.3kbits/s speed=0.0187x elapsed=0:02:24.38    \nframe=   84 fps=0.6 q=34.9 size=     768KiB time=00:00:02.73 bitrate=2301.9kbits/s speed=0.0189x elapsed=0:02:24.89    \nframe=   84 fps=0.6 q=34.9 size=     768KiB time=00:00:02.73 bitrate=2301.9kbits/s speed=0.0188x elapsed=0:02:25.40    \nframe=   84 fps=0.6 q=34.9 size=     768KiB time=00:00:02.73 bitrate=2301.9kbits/s speed=0.0187x elapsed=0:02:25.92    \nframe=   84 fps=0.6 q=34.9 size=     768KiB time=00:00:02.73 bitrate=2301.9kbits/s speed=0.0187x elapsed=0:02:26.44    \nframe=   85 fps=0.6 q=37.2 size=     768KiB time=00:00:02.76 bitrate=2274.1kbits/s speed=0.0188x elapsed=0:02:26.95    \nframe=   85 fps=0.6 q=37.2 size=     768KiB time=00:00:02.76 bitrate=2274.1kbits/s speed=0.0188x elapsed=0:02:27.46    \nframe=   85 fps=0.6 q=37.2 size=     768KiB time=00:00:02.76 bitrate=2274.1kbits/s speed=0.0187x elapsed=0:02:27.99    \nframe=   85 fps=0.6 q=37.2 size=     768KiB time=00:00:02.76 bitrate=2274.1kbits/s speed=0.0186x elapsed=0:02:28.51    \nframe=   86 fps=0.6 q=40.2 size=     768KiB time=00:00:02.80 bitrate=2247.1kbits/s speed=0.0188x elapsed=0:02:29.04    \nframe=   88 fps=0.6 q=40.2 size=     768KiB time=00:00:02.86 bitrate=2194.8kbits/s speed=0.0192x elapsed=0:02:29.56    \nframe=   88 fps=0.6 q=40.2 size=     768KiB time=00:00:02.86 bitrate=2194.8kbits/s speed=0.0191x elapsed=0:02:30.09    \nframe=   88 fps=0.6 q=40.2 size=     768KiB time=00:00:02.86 bitrate=2194.8kbits/s speed=0.019x elapsed=0:02:30.61    \nframe=   88 fps=0.6 q=40.2 size=     768KiB time=00:00:02.86 bitrate=2194.8kbits/s speed=0.019x elapsed=0:02:31.14    \nframe=   88 fps=0.6 q=40.2 size=     768KiB time=00:00:02.86 bitrate=2194.8kbits/s speed=0.0189x elapsed=0:02:31.66    \nframe=   89 fps=0.6 q=34.9 size=     768KiB time=00:00:02.90 bitrate=2169.6kbits/s speed=0.0191x elapsed=0:02:32.17    \nframe=   89 fps=0.6 q=34.9 size=     768KiB time=00:00:02.90 bitrate=2169.6kbits/s speed=0.019x elapsed=0:02:32.69    \nframe=   89 fps=0.6 q=34.9 size=     768KiB time=00:00:02.90 bitrate=2169.6kbits/s speed=0.0189x elapsed=0:02:33.20    \nframe=   89 fps=0.6 q=34.9 size=     768KiB time=00:00:02.90 bitrate=2169.6kbits/s speed=0.0189x elapsed=0:02:33.72    \nframe=   89 fps=0.6 q=34.9 size=     768KiB time=00:00:02.90 bitrate=2169.6kbits/s speed=0.0188x elapsed=0:02:34.24    \nframe=   90 fps=0.6 q=39.2 size=     768KiB time=00:00:02.93 bitrate=2144.9kbits/s speed=0.019x elapsed=0:02:34.77    \nframe=   90 fps=0.6 q=39.2 size=     768KiB time=00:00:02.93 bitrate=2144.9kbits/s speed=0.0189x elapsed=0:02:35.32    \nframe=   91 fps=0.6 q=40.3 size=     768KiB time=00:00:02.96 bitrate=2120.8kbits/s speed=0.019x elapsed=0:02:35.84    \nframe=   93 fps=0.6 q=40.2 size=     768KiB time=00:00:03.03 bitrate=2074.2kbits/s speed=0.0194x elapsed=0:02:36.35    \nframe=   93 fps=0.6 q=40.2 size=     768KiB time=00:00:03.03 bitrate=2074.2kbits/s speed=0.0193x elapsed=0:02:36.88    \nframe=   93 fps=0.6 q=40.2 size=     768KiB time=00:00:03.03 bitrate=2074.2kbits/s speed=0.0193x elapsed=0:02:37.39    \nframe=   93 fps=0.6 q=40.2 size=     768KiB time=00:00:03.03 bitrate=2074.2kbits/s speed=0.0192x elapsed=0:02:37.93    \nframe=   93 fps=0.6 q=40.2 size=     768KiB time=00:00:03.03 bitrate=2074.2kbits/s speed=0.0191x elapsed=0:02:38.45    \nframe=   93 fps=0.6 q=40.2 size=     768KiB time=00:00:03.03 bitrate=2074.2kbits/s speed=0.0191x elapsed=0:02:39.00    \nframe=   94 fps=0.6 q=37.2 size=     768KiB time=00:00:03.06 bitrate=2051.7kbits/s speed=0.0192x elapsed=0:02:39.52    \nframe=   94 fps=0.6 q=37.2 size=     768KiB time=00:00:03.06 bitrate=2051.7kbits/s speed=0.0192x elapsed=0:02:40.06    \nframe=   94 fps=0.6 q=37.2 size=     768KiB time=00:00:03.06 bitrate=2051.7kbits/s speed=0.0191x elapsed=0:02:40.59    \nframe=   94 fps=0.6 q=37.2 size=     768KiB time=00:00:03.06 bitrate=2051.7kbits/s speed=0.019x elapsed=0:02:41.13    \nframe=   95 fps=0.6 q=38.7 size=     768KiB time=00:00:03.10 bitrate=2029.6kbits/s speed=0.0192x elapsed=0:02:41.65    \nframe=   95 fps=0.6 q=38.7 size=     768KiB time=00:00:03.10 bitrate=2029.6kbits/s speed=0.0191x elapsed=0:02:42.19    \nframe=   95 fps=0.6 q=38.7 size=     768KiB time=00:00:03.10 bitrate=2029.6kbits/s speed=0.019x elapsed=0:02:42.74    \nframe=   95 fps=0.6 q=38.7 size=     768KiB time=00:00:03.10 bitrate=2029.6kbits/s speed=0.019x elapsed=0:02:43.28    \nframe=   95 fps=0.6 q=38.7 size=     768KiB time=00:00:03.10 bitrate=2029.6kbits/s speed=0.0189x elapsed=0:02:43.81    \nframe=   95 fps=0.6 q=38.7 size=     768KiB time=00:00:03.10 bitrate=2029.6kbits/s speed=0.0189x elapsed=0:02:44.33    \nframe=   95 fps=0.6 q=38.7 size=     768KiB time=00:00:03.10 bitrate=2029.6kbits/s speed=0.0188x elapsed=0:02:44.86    \nframe=   96 fps=0.6 q=40.3 size=     768KiB time=00:00:03.13 bitrate=2008.0kbits/s speed=0.0189x elapsed=0:02:45.40    \nframe=   97 fps=0.6 q=40.7 size=     768KiB time=00:00:03.16 bitrate=1986.9kbits/s speed=0.0191x elapsed=0:02:45.92    \nframe=   98 fps=0.6 q=36.8 size=     768KiB time=00:00:03.20 bitrate=1966.2kbits/s speed=0.0192x elapsed=0:02:46.47    \nframe=   98 fps=0.6 q=36.8 size=     768KiB time=00:00:03.20 bitrate=1966.2kbits/s speed=0.0192x elapsed=0:02:47.00    \nframe=   98 fps=0.6 q=36.8 size=     768KiB time=00:00:03.20 bitrate=1966.2kbits/s speed=0.0191x elapsed=0:02:47.52    \nframe=   98 fps=0.6 q=36.8 size=     768KiB time=00:00:03.20 bitrate=1966.2kbits/s speed=0.019x elapsed=0:02:48.04    \nframe=   98 fps=0.6 q=36.8 size=     768KiB time=00:00:03.20 bitrate=1966.2kbits/s speed=0.019x elapsed=0:02:48.57    \nframe=   99 fps=0.6 q=39.0 size=    1024KiB time=00:00:03.23 bitrate=2594.5kbits/s speed=0.0191x elapsed=0:02:49.11    \nframe=   99 fps=0.6 q=39.0 size=    1024KiB time=00:00:03.23 bitrate=2594.5kbits/s speed=0.0191x elapsed=0:02:49.63    \nframe=   99 fps=0.6 q=39.0 size=    1024KiB time=00:00:03.23 bitrate=2594.5kbits/s speed=0.019x elapsed=0:02:50.15    \nframe=   99 fps=0.6 q=39.0 size=    1024KiB time=00:00:03.23 bitrate=2594.5kbits/s speed=0.0189x elapsed=0:02:50.69    \nframe=  100 fps=0.6 q=40.8 size=    1024KiB time=00:00:03.26 bitrate=2568.0kbits/s speed=0.0191x elapsed=0:02:51.23    \nframe=  100 fps=0.6 q=40.8 size=    1024KiB time=00:00:03.26 bitrate=2568.0kbits/s speed=0.019x elapsed=0:02:51.76    \nframe=  100 fps=0.6 q=40.8 size=    1024KiB time=00:00:03.26 bitrate=2568.0kbits/s speed=0.019x elapsed=0:02:52.29    \nframe=  100 fps=0.6 q=40.8 size=    1024KiB time=00:00:03.26 bitrate=2568.0kbits/s speed=0.0189x elapsed=0:02:52.81    \nframe=  100 fps=0.6 q=40.8 size=    1024KiB time=00:00:03.26 bitrate=2568.0kbits/s speed=0.0188x elapsed=0:02:53.34    \nframe=  101 fps=0.6 q=36.5 size=    1024KiB time=00:00:03.30 bitrate=2542.1kbits/s speed=0.019x elapsed=0:02:53.86    \nframe=  101 fps=0.6 q=36.5 size=    1024KiB time=00:00:03.30 bitrate=2542.1kbits/s speed=0.0189x elapsed=0:02:54.39    \nframe=  101 fps=0.6 q=36.5 size=    1024KiB time=00:00:03.30 bitrate=2542.1kbits/s speed=0.0189x elapsed=0:02:54.98    \nframe=  101 fps=0.6 q=36.5 size=    1024KiB time=00:00:03.30 bitrate=2542.1kbits/s speed=0.0188x elapsed=0:02:55.56    \nframe=  101 fps=0.6 q=36.5 size=    1024KiB time=00:00:03.30 bitrate=2542.1kbits/s speed=0.0187x elapsed=0:02:56.16    \nframe=  101 fps=0.6 q=36.5 size=    1024KiB time=00:00:03.30 bitrate=2542.1kbits/s speed=0.0187x elapsed=0:02:56.69    \nframe=  101 fps=0.6 q=36.5 size=    1024KiB time=00:00:03.30 bitrate=2542.1kbits/s speed=0.0186x elapsed=0:02:57.23    \nframe=  102 fps=0.6 q=38.7 size=    1024KiB time=00:00:03.33 bitrate=2516.7kbits/s speed=0.0188x elapsed=0:02:57.76    \nframe=  102 fps=0.6 q=38.7 size=    1024KiB time=00:00:03.33 bitrate=2516.7kbits/s speed=0.0187x elapsed=0:02:58.26    \nframe=  102 fps=0.6 q=38.7 size=    1024KiB time=00:00:03.33 bitrate=2516.7kbits/s speed=0.0186x elapsed=0:02:58.77    \nframe=  102 fps=0.6 q=38.7 size=    1024KiB time=00:00:03.33 bitrate=2516.7kbits/s speed=0.0186x elapsed=0:02:59.31    \nframe=  104 fps=0.6 q=41.5 size=    1024KiB time=00:00:03.40 bitrate=2467.3kbits/s speed=0.0189x elapsed=0:02:59.86    \nframe=  104 fps=0.6 q=41.5 size=    1024KiB time=00:00:03.40 bitrate=2467.3kbits/s speed=0.0188x elapsed=0:03:00.41    \nframe=  104 fps=0.6 q=41.5 size=    1024KiB time=00:00:03.40 bitrate=2467.3kbits/s speed=0.0188x elapsed=0:03:00.93    \nframe=  104 fps=0.6 q=41.5 size=    1024KiB time=00:00:03.40 bitrate=2467.3kbits/s speed=0.0187x elapsed=0:03:01.48    \nframe=  104 fps=0.6 q=41.5 size=    1024KiB time=00:00:03.40 bitrate=2467.3kbits/s speed=0.0187x elapsed=0:03:02.06    \nframe=  105 fps=0.6 q=37.5 size=    1024KiB time=00:00:03.43 bitrate=2443.4kbits/s speed=0.0188x elapsed=0:03:02.59    \nframe=  105 fps=0.6 q=37.5 size=    1024KiB time=00:00:03.43 bitrate=2443.4kbits/s speed=0.0187x elapsed=0:03:03.19    \nframe=  105 fps=0.6 q=37.5 size=    1024KiB time=00:00:03.43 bitrate=2443.4kbits/s speed=0.0187x elapsed=0:03:03.76    \nframe=  105 fps=0.6 q=37.5 size=    1024KiB time=00:00:03.43 bitrate=2443.4kbits/s speed=0.0186x elapsed=0:03:04.34    \nframe=  105 fps=0.6 q=37.5 size=    1024KiB time=00:00:03.43 bitrate=2443.4kbits/s speed=0.0186x elapsed=0:03:04.98    \nframe=  105 fps=0.6 q=37.5 size=    1024KiB time=00:00:03.43 bitrate=2443.4kbits/s speed=0.0185x elapsed=0:03:05.59    \nframe=  105 fps=0.6 q=37.5 size=    1024KiB time=00:00:03.43 bitrate=2443.4kbits/s speed=0.0184x elapsed=0:03:06.12    \nframe=  106 fps=0.6 q=39.7 size=    1024KiB time=00:00:03.46 bitrate=2419.9kbits/s speed=0.0186x elapsed=0:03:06.64    \nframe=  106 fps=0.6 q=39.7 size=    1024KiB time=00:00:03.46 bitrate=2419.9kbits/s speed=0.0185x elapsed=0:03:07.19    \nframe=  106 fps=0.6 q=39.7 size=    1024KiB time=00:00:03.46 bitrate=2419.9kbits/s speed=0.0185x elapsed=0:03:07.74    \nframe=  106 fps=0.6 q=39.7 size=    1024KiB time=00:00:03.46 bitrate=2419.9kbits/s speed=0.0184x elapsed=0:03:08.30    \nframe=  106 fps=0.6 q=39.7 size=    1024KiB time=00:00:03.46 bitrate=2419.9kbits/s speed=0.0184x elapsed=0:03:08.83    \nframe=  107 fps=0.6 q=41.5 size=    1024KiB time=00:00:03.50 bitrate=2396.8kbits/s speed=0.0185x elapsed=0:03:09.34    \nframe=  108 fps=0.6 q=41.6 size=    1024KiB time=00:00:03.53 bitrate=2374.2kbits/s speed=0.0186x elapsed=0:03:09.86    \nframe=  109 fps=0.6 q=36.9 size=    1024KiB time=00:00:03.56 bitrate=2352.0kbits/s speed=0.0187x elapsed=0:03:10.37    \nframe=  109 fps=0.6 q=36.9 size=    1024KiB time=00:00:03.56 bitrate=2352.0kbits/s speed=0.0187x elapsed=0:03:10.88    \nframe=  109 fps=0.6 q=36.9 size=    1024KiB time=00:00:03.56 bitrate=2352.0kbits/s speed=0.0186x elapsed=0:03:11.40    \nframe=  109 fps=0.6 q=36.9 size=    1024KiB time=00:00:03.56 bitrate=2352.0kbits/s speed=0.0186x elapsed=0:03:11.92    \nframe=  109 fps=0.6 q=36.9 size=    1024KiB time=00:00:03.56 bitrate=2352.0kbits/s speed=0.0185x elapsed=0:03:12.43    \nframe=  111 fps=0.6 q=41.5 size=    1024KiB time=00:00:03.63 bitrate=2308.9kbits/s speed=0.0188x elapsed=0:03:12.95    \nframe=  111 fps=0.6 q=41.5 size=    1024KiB time=00:00:03.63 bitrate=2308.9kbits/s speed=0.0188x elapsed=0:03:13.48    \nframe=  111 fps=0.6 q=41.5 size=    1024KiB time=00:00:03.63 bitrate=2308.9kbits/s speed=0.0187x elapsed=0:03:14.01    \nframe=  111 fps=0.6 q=41.5 size=    1024KiB time=00:00:03.63 bitrate=2308.9kbits/s speed=0.0187x elapsed=0:03:14.53    \nframe=  111 fps=0.6 q=41.5 size=    1024KiB time=00:00:03.63 bitrate=2308.9kbits/s speed=0.0186x elapsed=0:03:15.07    \nframe=  111 fps=0.6 q=41.5 size=    1024KiB time=00:00:03.63 bitrate=2308.9kbits/s speed=0.0186x elapsed=0:03:15.59    \nframe=  111 fps=0.6 q=41.5 size=    1024KiB time=00:00:03.63 bitrate=2308.9kbits/s speed=0.0185x elapsed=0:03:16.12    \nframe=  112 fps=0.6 q=36.6 size=    1024KiB time=00:00:03.66 bitrate=2287.9kbits/s speed=0.0186x elapsed=0:03:16.66    \nframe=  112 fps=0.6 q=36.6 size=    1024KiB time=00:00:03.66 bitrate=2287.9kbits/s speed=0.0186x elapsed=0:03:17.17    \nframe=  112 fps=0.6 q=36.6 size=    1024KiB time=00:00:03.66 bitrate=2287.9kbits/s speed=0.0185x elapsed=0:03:17.68    \nframe=  112 fps=0.6 q=36.6 size=    1024KiB time=00:00:03.66 bitrate=2287.9kbits/s speed=0.0185x elapsed=0:03:18.20    \nframe=  112 fps=0.6 q=36.6 size=    1024KiB time=00:00:03.66 bitrate=2287.9kbits/s speed=0.0184x elapsed=0:03:18.77    \nframe=  112 fps=0.6 q=36.6 size=    1024KiB time=00:00:03.66 bitrate=2287.9kbits/s speed=0.0184x elapsed=0:03:19.32    \nframe=  112 fps=0.6 q=36.6 size=    1024KiB time=00:00:03.66 bitrate=2287.9kbits/s speed=0.0183x elapsed=0:03:19.87    \nframe=  113 fps=0.6 q=39.0 size=    1024KiB time=00:00:03.70 bitrate=2267.3kbits/s speed=0.0185x elapsed=0:03:20.39    \nframe=  113 fps=0.6 q=39.0 size=    1024KiB time=00:00:03.70 bitrate=2267.3kbits/s speed=0.0184x elapsed=0:03:20.94    \nframe=  113 fps=0.6 q=39.0 size=    1024KiB time=00:00:03.70 bitrate=2267.3kbits/s speed=0.0184x elapsed=0:03:21.50    \nframe=  113 fps=0.6 q=39.0 size=    1024KiB time=00:00:03.70 bitrate=2267.3kbits/s speed=0.0183x elapsed=0:03:22.04    \nframe=  115 fps=0.6 q=41.4 size=    1024KiB time=00:00:03.76 bitrate=2227.2kbits/s speed=0.0186x elapsed=0:03:22.57    \nframe=  115 fps=0.6 q=41.4 size=    1024KiB time=00:00:03.76 bitrate=2227.2kbits/s speed=0.0185x elapsed=0:03:23.13    \nframe=  115 fps=0.6 q=41.4 size=    1024KiB time=00:00:03.76 bitrate=2227.2kbits/s speed=0.0185x elapsed=0:03:23.67    \nframe=  115 fps=0.6 q=41.4 size=    1024KiB time=00:00:03.76 bitrate=2227.2kbits/s speed=0.0184x elapsed=0:03:24.20    \nframe=  115 fps=0.6 q=41.4 size=    1024KiB time=00:00:03.76 bitrate=2227.2kbits/s speed=0.0184x elapsed=0:03:24.78    \nframe=  115 fps=0.6 q=41.4 size=    1024KiB time=00:00:03.76 bitrate=2227.2kbits/s speed=0.0183x elapsed=0:03:25.35    \nframe=  115 fps=0.6 q=41.4 size=    1024KiB time=00:00:03.76 bitrate=2227.2kbits/s speed=0.0183x elapsed=0:03:25.96    \nframe=  115 fps=0.6 q=41.4 size=    1024KiB time=00:00:03.76 bitrate=2227.2kbits/s speed=0.0182x elapsed=0:03:26.54    \nframe=  115 fps=0.6 q=41.4 size=    1024KiB time=00:00:03.76 bitrate=2227.2kbits/s speed=0.0182x elapsed=0:03:27.10    \nframe=  115 fps=0.6 q=41.4 size=    1024KiB time=00:00:03.76 bitrate=2227.2kbits/s speed=0.0181x elapsed=0:03:27.71    \nframe=  115 fps=0.6 q=41.4 size=    1024KiB time=00:00:03.76 bitrate=2227.2kbits/s speed=0.0181x elapsed=0:03:28.29    \nframe=  115 fps=0.6 q=41.4 size=    1024KiB time=00:00:03.76 bitrate=2227.2kbits/s speed=0.018x elapsed=0:03:28.87    \nframe=  116 fps=0.6 q=37.1 size=    1024KiB time=00:00:03.80 bitrate=2207.6kbits/s speed=0.0181x elapsed=0:03:29.41    \nframe=  116 fps=0.6 q=37.1 size=    1024KiB time=00:00:03.80 bitrate=2207.6kbits/s speed=0.0181x elapsed=0:03:29.93    \nframe=  116 fps=0.6 q=37.1 size=    1024KiB time=00:00:03.80 bitrate=2207.6kbits/s speed=0.018x elapsed=0:03:30.56    \nframe=  116 fps=0.5 q=37.1 size=    1024KiB time=00:00:03.80 bitrate=2207.6kbits/s speed=0.018x elapsed=0:03:31.13    \nframe=  116 fps=0.5 q=37.1 size=    1024KiB time=00:00:03.80 bitrate=2207.6kbits/s speed=0.018x elapsed=0:03:31.65    \nframe=  116 fps=0.5 q=37.1 size=    1024KiB time=00:00:03.80 bitrate=2207.6kbits/s speed=0.0179x elapsed=0:03:32.19    \nframe=  116 fps=0.5 q=37.1 size=    1024KiB time=00:00:03.80 bitrate=2207.6kbits/s speed=0.0179x elapsed=0:03:32.79    \nframe=  116 fps=0.5 q=37.1 size=    1024KiB time=00:00:03.80 bitrate=2207.6kbits/s speed=0.0178x elapsed=0:03:33.38    \nframe=  116 fps=0.5 q=37.1 size=    1024KiB time=00:00:03.80 bitrate=2207.6kbits/s speed=0.0178x elapsed=0:03:33.96    \nframe=  116 fps=0.5 q=37.1 size=    1024KiB time=00:00:03.80 bitrate=2207.6kbits/s speed=0.0177x elapsed=0:03:34.50    \nframe=  116 fps=0.5 q=37.1 size=    1024KiB time=00:00:03.80 bitrate=2207.6kbits/s speed=0.0177x elapsed=0:03:35.06    \nframe=  117 fps=0.5 q=39.2 size=    1024KiB time=00:00:03.83 bitrate=2188.4kbits/s speed=0.0178x elapsed=0:03:35.64    \nframe=  117 fps=0.5 q=39.2 size=    1024KiB time=00:00:03.83 bitrate=2188.4kbits/s speed=0.0177x elapsed=0:03:36.21    \nframe=  117 fps=0.5 q=39.2 size=    1024KiB time=00:00:03.83 bitrate=2188.4kbits/s speed=0.0177x elapsed=0:03:36.76    \nframe=  117 fps=0.5 q=39.2 size=    1024KiB time=00:00:03.83 bitrate=2188.4kbits/s speed=0.0176x elapsed=0:03:37.35    \nframe=  117 fps=0.5 q=39.2 size=    1024KiB time=00:00:03.83 bitrate=2188.4kbits/s speed=0.0176x elapsed=0:03:37.92    \nframe=  117 fps=0.5 q=39.2 size=    1024KiB time=00:00:03.83 bitrate=2188.4kbits/s speed=0.0175x elapsed=0:03:38.47    \nframe=  117 fps=0.5 q=39.2 size=    1024KiB time=00:00:03.83 bitrate=2188.4kbits/s speed=0.0175x elapsed=0:03:39.02    \nframe=  117 fps=0.5 q=39.2 size=    1024KiB time=00:00:03.83 bitrate=2188.4kbits/s speed=0.0175x elapsed=0:03:39.54    \nframe=  117 fps=0.5 q=39.2 size=    1024KiB time=00:00:03.83 bitrate=2188.4kbits/s speed=0.0174x elapsed=0:03:40.08    \nframe=  118 fps=0.5 q=41.2 size=    1024KiB time=00:00:03.86 bitrate=2169.6kbits/s speed=0.0175x elapsed=0:03:40.64    \nframe=  118 fps=0.5 q=41.2 size=    1024KiB time=00:00:03.86 bitrate=2169.6kbits/s speed=0.0175x elapsed=0:03:41.17    \nframe=  118 fps=0.5 q=41.2 size=    1024KiB time=00:00:03.86 bitrate=2169.6kbits/s speed=0.0174x elapsed=0:03:41.71    \nframe=  119 fps=0.5 q=36.6 size=    1024KiB time=00:00:03.90 bitrate=2151.0kbits/s speed=0.0175x elapsed=0:03:42.27    \nframe=  119 fps=0.5 q=36.6 size=    1024KiB time=00:00:03.90 bitrate=2151.0kbits/s speed=0.0175x elapsed=0:03:42.85    \nframe=  119 fps=0.5 q=36.6 size=    1024KiB time=00:00:03.90 bitrate=2151.0kbits/s speed=0.0175x elapsed=0:03:43.36    \nframe=  119 fps=0.5 q=36.6 size=    1024KiB time=00:00:03.90 bitrate=2151.0kbits/s speed=0.0174x elapsed=0:03:43.90    \nframe=  119 fps=0.5 q=36.6 size=    1024KiB time=00:00:03.90 bitrate=2151.0kbits/s speed=0.0174x elapsed=0:03:44.41    \nframe=  120 fps=0.5 q=38.9 size=    1024KiB time=00:00:03.93 bitrate=2132.8kbits/s speed=0.0175x elapsed=0:03:44.93    \nframe=  120 fps=0.5 q=38.9 size=    1024KiB time=00:00:03.93 bitrate=2132.8kbits/s speed=0.0174x elapsed=0:03:45.46    \nframe=  120 fps=0.5 q=38.9 size=    1024KiB time=00:00:03.93 bitrate=2132.8kbits/s speed=0.0174x elapsed=0:03:46.03    \nframe=  120 fps=0.5 q=38.9 size=    1024KiB time=00:00:03.93 bitrate=2132.8kbits/s speed=0.0174x elapsed=0:03:46.61    \nframe=  120 fps=0.5 q=38.9 size=    1024KiB time=00:00:03.93 bitrate=2132.8kbits/s speed=0.0173x elapsed=0:03:47.18    \nframe=  121 fps=0.5 q=41.5 size=    1024KiB time=00:00:03.96 bitrate=2114.9kbits/s speed=0.0174x elapsed=0:03:47.75    \nframe=  122 fps=0.5 q=41.1 size=    1024KiB time=00:00:03.96 bitrate=2114.9kbits/s speed=0.0174x elapsed=0:03:48.28    \nframe=  122 fps=0.5 q=41.1 size=    1024KiB time=00:00:04.00 bitrate=2097.2kbits/s speed=0.0175x elapsed=0:03:48.80    \nframe=  122 fps=0.5 q=41.1 size=    1024KiB time=00:00:04.00 bitrate=2097.2kbits/s speed=0.0174x elapsed=0:03:49.32    \nframe=  122 fps=0.5 q=41.1 size=    1024KiB time=00:00:04.00 bitrate=2097.2kbits/s speed=0.0174x elapsed=0:03:49.87    \nframe=  122 fps=0.5 q=41.1 size=    1024KiB time=00:00:04.00 bitrate=2097.2kbits/s speed=0.0174x elapsed=0:03:50.39    \nframe=  122 fps=0.5 q=41.1 size=    1024KiB time=00:00:04.00 bitrate=2097.2kbits/s speed=0.0173x elapsed=0:03:50.92    \nframe=  122 fps=0.5 q=41.1 size=    1024KiB time=00:00:04.00 bitrate=2097.2kbits/s speed=0.0173x elapsed=0:03:51.45    \nframe=  122 fps=0.5 q=41.1 size=    1024KiB time=00:00:04.00 bitrate=2097.2kbits/s speed=0.0172x elapsed=0:03:51.98    \nframe=  123 fps=0.5 q=35.8 size=    1024KiB time=00:00:04.03 bitrate=2079.9kbits/s speed=0.0173x elapsed=0:03:52.50    \nframe=  123 fps=0.5 q=35.8 size=    1024KiB time=00:00:04.03 bitrate=2079.9kbits/s speed=0.0173x elapsed=0:03:53.01    \nframe=  123 fps=0.5 q=35.8 size=    1024KiB time=00:00:04.03 bitrate=2079.9kbits/s speed=0.0173x elapsed=0:03:53.53    \nframe=  123 fps=0.5 q=35.8 size=    1024KiB time=00:00:04.03 bitrate=2079.9kbits/s speed=0.0172x elapsed=0:03:54.06    \nframe=  123 fps=0.5 q=35.8 size=    1024KiB time=00:00:04.03 bitrate=2079.9kbits/s speed=0.0172x elapsed=0:03:54.58    \nframe=  123 fps=0.5 q=35.8 size=    1024KiB time=00:00:04.03 bitrate=2079.9kbits/s speed=0.0172x elapsed=0:03:55.10    \nframe=  123 fps=0.5 q=35.8 size=    1024KiB time=00:00:04.03 bitrate=2079.9kbits/s speed=0.0171x elapsed=0:03:55.63    \nframe=  124 fps=0.5 q=38.9 size=    1280KiB time=00:00:04.06 bitrate=2578.6kbits/s speed=0.0172x elapsed=0:03:56.16    \nframe=  124 fps=0.5 q=38.9 size=    1280KiB time=00:00:04.06 bitrate=2578.6kbits/s speed=0.0172x elapsed=0:03:56.67    \nframe=  124 fps=0.5 q=38.9 size=    1280KiB time=00:00:04.06 bitrate=2578.6kbits/s speed=0.0171x elapsed=0:03:57.21    \nframe=  124 fps=0.5 q=38.9 size=    1280KiB time=00:00:04.06 bitrate=2578.6kbits/s speed=0.0171x elapsed=0:03:57.75    \nframe=  124 fps=0.5 q=38.9 size=    1280KiB time=00:00:04.06 bitrate=2578.6kbits/s speed=0.0171x elapsed=0:03:58.27    \nframe=  124 fps=0.5 q=38.9 size=    1280KiB time=00:00:04.06 bitrate=2578.6kbits/s speed=0.017x elapsed=0:03:58.83    \nframe=  125 fps=0.5 q=41.3 size=    1280KiB time=00:00:04.10 bitrate=2557.6kbits/s speed=0.0171x elapsed=0:03:59.34    \nframe=  126 fps=0.5 q=41.4 size=    1280KiB time=00:00:04.13 bitrate=2537.0kbits/s speed=0.0172x elapsed=0:03:59.87    \nframe=  126 fps=0.5 q=41.4 size=    1280KiB time=00:00:04.13 bitrate=2537.0kbits/s speed=0.0172x elapsed=0:04:00.40    \nframe=  127 fps=0.5 q=41.4 size=    1280KiB time=00:00:04.16 bitrate=2516.7kbits/s speed=0.0173x elapsed=0:04:00.92    \nframe=  127 fps=0.5 q=41.4 size=    1280KiB time=00:00:04.16 bitrate=2516.7kbits/s speed=0.0173x elapsed=0:04:01.45    \nframe=  127 fps=0.5 q=41.4 size=    1280KiB time=00:00:04.16 bitrate=2516.7kbits/s speed=0.0172x elapsed=0:04:01.97    \nframe=  127 fps=0.5 q=41.4 size=    1280KiB time=00:00:04.16 bitrate=2516.7kbits/s speed=0.0172x elapsed=0:04:02.48    \nframe=  128 fps=0.5 q=36.6 size=    1280KiB time=00:00:04.20 bitrate=2496.7kbits/s speed=0.0173x elapsed=0:04:03.00    \nframe=  128 fps=0.5 q=36.6 size=    1280KiB time=00:00:04.20 bitrate=2496.7kbits/s speed=0.0172x elapsed=0:04:03.51    \nframe=  128 fps=0.5 q=36.6 size=    1280KiB time=00:00:04.20 bitrate=2496.7kbits/s speed=0.0172x elapsed=0:04:04.02    \nframe=  128 fps=0.5 q=36.6 size=    1280KiB time=00:00:04.20 bitrate=2496.7kbits/s speed=0.0172x elapsed=0:04:04.54    \nframe=  128 fps=0.5 q=36.6 size=    1280KiB time=00:00:04.20 bitrate=2496.7kbits/s speed=0.0171x elapsed=0:04:05.06    \nframe=  129 fps=0.5 q=38.1 size=    1280KiB time=00:00:04.23 bitrate=2477.0kbits/s speed=0.0172x elapsed=0:04:05.60    \nframe=  129 fps=0.5 q=38.1 size=    1280KiB time=00:00:04.23 bitrate=2477.0kbits/s speed=0.0172x elapsed=0:04:06.12    \nframe=  130 fps=0.5 q=41.3 size=    1280KiB time=00:00:04.26 bitrate=2457.7kbits/s speed=0.0173x elapsed=0:04:06.65    \nframe=  131 fps=0.5 q=41.3 size=    1280KiB time=00:00:04.30 bitrate=2438.6kbits/s speed=0.0174x elapsed=0:04:07.17    \nframe=  131 fps=0.5 q=41.3 size=    1280KiB time=00:00:04.30 bitrate=2438.6kbits/s speed=0.0174x elapsed=0:04:07.70    \nframe=  131 fps=0.5 q=41.3 size=    1280KiB time=00:00:04.30 bitrate=2438.6kbits/s speed=0.0173x elapsed=0:04:08.27    \nframe=  131 fps=0.5 q=41.3 size=    1280KiB time=00:00:04.30 bitrate=2438.6kbits/s speed=0.0173x elapsed=0:04:08.84    \nframe=  132 fps=0.5 q=41.2 size=    1280KiB time=00:00:04.33 bitrate=2419.9kbits/s speed=0.0174x elapsed=0:04:09.37    \nframe=  132 fps=0.5 q=41.2 size=    1280KiB time=00:00:04.33 bitrate=2419.9kbits/s speed=0.0173x elapsed=0:04:09.89    \nframe=  132 fps=0.5 q=41.2 size=    1280KiB time=00:00:04.33 bitrate=2419.9kbits/s speed=0.0173x elapsed=0:04:10.41    \nframe=  132 fps=0.5 q=41.2 size=    1280KiB time=00:00:04.33 bitrate=2419.9kbits/s speed=0.0173x elapsed=0:04:10.92    \nframe=  132 fps=0.5 q=41.2 size=    1280KiB time=00:00:04.33 bitrate=2419.9kbits/s speed=0.0172x elapsed=0:04:11.43    \nframe=  133 fps=0.5 q=37.0 size=    1280KiB time=00:00:04.36 bitrate=2401.4kbits/s speed=0.0173x elapsed=0:04:11.96    \nframe=  133 fps=0.5 q=37.0 size=    1280KiB time=00:00:04.36 bitrate=2401.4kbits/s speed=0.0173x elapsed=0:04:12.47    \nframe=  133 fps=0.5 q=37.0 size=    1280KiB time=00:00:04.36 bitrate=2401.4kbits/s speed=0.0173x elapsed=0:04:13.00    \nframe=  133 fps=0.5 q=37.0 size=    1280KiB time=00:00:04.36 bitrate=2401.4kbits/s speed=0.0172x elapsed=0:04:13.54    \nframe=  133 fps=0.5 q=37.0 size=    1280KiB time=00:00:04.36 bitrate=2401.4kbits/s speed=0.0172x elapsed=0:04:14.09    \nframe=  133 fps=0.5 q=37.0 size=    1280KiB time=00:00:04.36 bitrate=2401.4kbits/s speed=0.0171x elapsed=0:04:14.62    \nframe=  133 fps=0.5 q=37.0 size=    1280KiB time=00:00:04.36 bitrate=2401.4kbits/s speed=0.0171x elapsed=0:04:15.14    \nframe=  134 fps=0.5 q=40.3 size=    1280KiB time=00:00:04.40 bitrate=2383.2kbits/s speed=0.0172x elapsed=0:04:15.66    \nframe=  134 fps=0.5 q=40.3 size=    1280KiB time=00:00:04.40 bitrate=2383.2kbits/s speed=0.0172x elapsed=0:04:16.18    \nframe=  134 fps=0.5 q=40.3 size=    1280KiB time=00:00:04.40 bitrate=2383.2kbits/s speed=0.0171x elapsed=0:04:16.70    \nframe=  134 fps=0.5 q=40.3 size=    1280KiB time=00:00:04.40 bitrate=2383.2kbits/s speed=0.0171x elapsed=0:04:17.23    \nframe=  134 fps=0.5 q=40.3 size=    1280KiB time=00:00:04.40 bitrate=2383.2kbits/s speed=0.0171x elapsed=0:04:17.75    \nframe=  135 fps=0.5 q=41.1 size=    1280KiB time=00:00:04.43 bitrate=2365.3kbits/s speed=0.0172x elapsed=0:04:18.29    \nframe=  136 fps=0.5 q=41.5 size=    1280KiB time=00:00:04.46 bitrate=2347.6kbits/s speed=0.0173x elapsed=0:04:18.82    \nframe=  137 fps=0.5 q=41.5 size=    1280KiB time=00:00:04.50 bitrate=2330.2kbits/s speed=0.0174x elapsed=0:04:19.32    \nframe=  137 fps=0.5 q=41.5 size=    1280KiB time=00:00:04.50 bitrate=2330.2kbits/s speed=0.0173x elapsed=0:04:19.84    \nframe=  137 fps=0.5 q=41.5 size=    1280KiB time=00:00:04.50 bitrate=2330.2kbits/s speed=0.0173x elapsed=0:04:20.37    \nframe=  137 fps=0.5 q=41.5 size=    1280KiB time=00:00:04.50 bitrate=2330.2kbits/s speed=0.0172x elapsed=0:04:20.90    \nframe=  137 fps=0.5 q=41.5 size=    1280KiB time=00:00:04.50 bitrate=2330.2kbits/s speed=0.0172x elapsed=0:04:21.43    \nframe=  138 fps=0.5 q=36.5 size=    1280KiB time=00:00:04.53 bitrate=2313.1kbits/s speed=0.0173x elapsed=0:04:21.95    \nframe=  138 fps=0.5 q=36.5 size=    1280KiB time=00:00:04.53 bitrate=2313.1kbits/s speed=0.0173x elapsed=0:04:22.48    \nframe=  138 fps=0.5 q=36.5 size=    1280KiB time=00:00:04.53 bitrate=2313.1kbits/s speed=0.0172x elapsed=0:04:23.02    \nframe=  138 fps=0.5 q=36.5 size=    1280KiB time=00:00:04.53 bitrate=2313.1kbits/s speed=0.0172x elapsed=0:04:23.54    \nframe=  138 fps=0.5 q=36.5 size=    1280KiB time=00:00:04.53 bitrate=2313.1kbits/s speed=0.0172x elapsed=0:04:24.06    \nframe=  138 fps=0.5 q=36.5 size=    1280KiB time=00:00:04.53 bitrate=2313.1kbits/s speed=0.0171x elapsed=0:04:24.57    \nframe=  139 fps=0.5 q=38.8 size=    1280KiB time=00:00:04.56 bitrate=2296.2kbits/s speed=0.0172x elapsed=0:04:25.09    \nframe=  139 fps=0.5 q=38.8 size=    1280KiB time=00:00:04.56 bitrate=2296.2kbits/s speed=0.0172x elapsed=0:04:25.61    \nframe=  141 fps=0.5 q=41.4 size=    1280KiB time=00:00:04.63 bitrate=2263.2kbits/s speed=0.0174x elapsed=0:04:26.13    \nframe=  141 fps=0.5 q=41.4 size=    1280KiB time=00:00:04.63 bitrate=2263.2kbits/s speed=0.0174x elapsed=0:04:26.67    \nframe=  141 fps=0.5 q=41.4 size=    1280KiB time=00:00:04.63 bitrate=2263.2kbits/s speed=0.0173x elapsed=0:04:27.21    \nframe=  141 fps=0.5 q=41.4 size=    1280KiB time=00:00:04.63 bitrate=2263.2kbits/s speed=0.0173x elapsed=0:04:27.78    \nframe=  141 fps=0.5 q=41.4 size=    1280KiB time=00:00:04.63 bitrate=2263.2kbits/s speed=0.0173x elapsed=0:04:28.36    \nframe=  141 fps=0.5 q=41.4 size=    1280KiB time=00:00:04.63 bitrate=2263.2kbits/s speed=0.0172x elapsed=0:04:28.89    \nframe=  141 fps=0.5 q=41.4 size=    1280KiB time=00:00:04.63 bitrate=2263.2kbits/s speed=0.0172x elapsed=0:04:29.42    \nframe=  142 fps=0.5 q=36.4 size=    1280KiB time=00:00:04.66 bitrate=2247.0kbits/s speed=0.0173x elapsed=0:04:29.93    \nframe=  142 fps=0.5 q=36.4 size=    1280KiB time=00:00:04.66 bitrate=2247.0kbits/s speed=0.0173x elapsed=0:04:30.45    \nframe=  142 fps=0.5 q=36.4 size=    1280KiB time=00:00:04.66 bitrate=2247.0kbits/s speed=0.0172x elapsed=0:04:30.98    \nframe=  143 fps=0.5 q=38.8 size=    1280KiB time=00:00:04.70 bitrate=2231.1kbits/s speed=0.0173x elapsed=0:04:31.49    \nframe=  143 fps=0.5 q=38.8 size=    1280KiB time=00:00:04.70 bitrate=2231.1kbits/s speed=0.0173x elapsed=0:04:32.02    \nframe=  145 fps=0.5 q=41.4 size=    1280KiB time=00:00:04.76 bitrate=2199.9kbits/s speed=0.0175x elapsed=0:04:32.53    \nframe=  145 fps=0.5 q=41.4 size=    1280KiB time=00:00:04.76 bitrate=2199.9kbits/s speed=0.0175x elapsed=0:04:33.05    \nframe=  146 fps=0.5 q=38.3 size=    1280KiB time=00:00:04.80 bitrate=2184.6kbits/s speed=0.0175x elapsed=0:04:33.57    \nframe=  146 fps=0.5 q=38.3 size=    1280KiB time=00:00:04.80 bitrate=2184.6kbits/s speed=0.0175x elapsed=0:04:34.08    \nframe=  146 fps=0.5 q=38.3 size=    1280KiB time=00:00:04.80 bitrate=2184.6kbits/s speed=0.0175x elapsed=0:04:34.60    \nframe=  147 fps=0.5 q=39.6 size=    1280KiB time=00:00:04.83 bitrate=2169.5kbits/s speed=0.0176x elapsed=0:04:35.11    \nframe=  147 fps=0.5 q=39.6 size=    1280KiB time=00:00:04.83 bitrate=2169.5kbits/s speed=0.0175x elapsed=0:04:35.63    \n[mp4 @ 0000019f2fa59740] Starting second pass: moving the moov atom to the beginning of the file\n[out#0/mp4 @ 0000019f2fa4abc0] video:1566KiB audio:0KiB subtitle:0KiB other streams:0KiB global headers:2KiB muxing overhead: 0.328735%\nframe=  150 fps=0.5 q=40.9 Lsize=    1571KiB time=00:00:04.93 bitrate=2609.2kbits/s speed=0.0179x elapsed=0:04:36.14    \nx265 [info]: frame I:      1, Avg QP:35.88  kb/s: 5002.56 \nx265 [info]: frame P:     37, Avg QP:36.33  kb/s: 4546.07 \nx265 [info]: frame B:    112, Avg QP:39.94  kb/s: 1888.77 \nx265 [info]: Weighted P-Frames: Y:24.3% UV:18.9%\n\nencoded 150 frames in 275.88s (0.54 fps), 2565.00 kb/s, Avg QP:39.02\n",
  "seconds": 276.39599990844727,
  "probe_out": {}
}